<svg width="24" height="24" fill="none" xmlns="http://www.w3.org/2000/svg"><rect x=".5" y=".5" width="23" height="23" rx="11.5" fill="#fff"/><path fill-rule="evenodd" clip-rule="evenodd" d="M18.44 12.148a7.46 7.46 0 00-.118-1.33H12.2v2.515h3.498a2.99 2.99 0 01-1.297 1.961v1.631h2.1c1.23-1.131 1.939-2.798 1.939-4.777z" fill="#4285F4"/><path fill-rule="evenodd" clip-rule="evenodd" d="M12.2 18.5c1.755 0 3.226-.582 4.302-1.574l-2.1-1.631c-.583.39-1.327.62-2.202.62-1.693 0-3.126-1.143-3.637-2.68H6.391v1.684A6.497 6.497 0 0012.2 18.5z" fill="#34A853"/><path fill-rule="evenodd" clip-rule="evenodd" d="M8.563 13.235A3.907 3.907 0 018.359 12c0-.428.074-.845.204-1.235V9.081H6.39a6.498 6.498 0 000 5.838l2.172-1.684z" fill="#FBBC05"/><path fill-rule="evenodd" clip-rule="evenodd" d="M12.2 8.085c.954 0 1.811.328 2.485.972l1.864-1.864C15.423 6.144 13.952 5.5 12.2 5.5a6.498 6.498 0 00-5.809 3.58l2.172 1.685c.511-1.536 1.944-2.68 3.637-2.68z" fill="#EA4335"/><rect x=".5" y=".5" width="23" height="23" rx="11.5" stroke="#DFDFDF"/></svg>